# xmcd CD database file
#
# Track frame offsets:
#	150
#	40949
#	75097
#	103537
#	124740
#	130626
#	163168
#	174289
#	213190
#	241640
#	273634
#	301267
#	319988
#
# Disc length: 4395 seconds
#
# Revision: 0
# Processed by: cddbd v1.5.2PL0 Copyright (c) Steve Scherf et al.
# Submitted via: CDex 1.51
#
DISCID=9e11290d
DTITLE=Steve Miller and Lol Coxhill - "The Story So Far ..." "...Oh Really?" Disk 1
DYEAR=2007
DGENRE=Jazz
TTITLE0=Chocolate Field
TTITLE1=One for You
TTITLE2=Portland Bill
TTITLE3=Will My Thirst Play Me Tricks - The Ant About to be Crushed Ponders Not the Where Withal of Boot Leather
TTITLE4=Maggots
TTITLE5=Bath 72
TTITLE6=Wimbledon baths
TTITLE7=Gog Ma Gog
TTITLE8=Betty (You Pays Your Money, You Takes Your Chances)
TTITLE9=God Song
TTITLE10=Bossa Nochance - Big Jobs 
TTITLE11=Big Jobs No. 2
TTITLE12=God Song
EXTD=YEAR: 2007
EXTT0=
EXTT1=
EXTT2=
EXTT3=
EXTT4=
EXTT5=
EXTT6=
EXTT7=
EXTT8=
EXTT9=
EXTT10=
EXTT11=
EXTT12=
PLAYORDER=
